<?xml version="1.0" standalone="no"?>
<!DOCTYPE svg PUBLIC "-//W3C//DTD SVG 20010904//EN"
 "http://www.w3.org/TR/2001/REC-SVG-20010904/DTD/svg10.dtd">
<svg version="1.0" xmlns="http://www.w3.org/2000/svg"
 width="700.000000pt" height="700.000000pt" viewBox="0 0 700.000000 700.000000"
 preserveAspectRatio="xMidYMid meet">
<metadata>
Created by potrace 1.11, written by Peter Selinger 2001-2013
</metadata>
<g transform="translate(0.000000,700.000000) scale(0.100000,-0.100000)"
fill="#000000" stroke="none">
<path d="M2914 6639 c-49 -34 -104 -72 -121 -86 -22 -16 -33 -20 -34 -11 -1 7
-2 33 -3 58 l-1 45 -537 0 c-296 0 -539 -2 -539 -5 -5 -16 -4 -6280 1 -6281 7
0 1018 -1 1051 0 l26 1 1 1067 c0 588 1 1074 1 1082 1 8 8 4 20 -10 l19 -24
154 105 c84 57 200 137 258 177 58 39 155 106 215 147 61 41 175 120 255 175
80 55 197 135 260 178 63 43 205 140 315 215 110 76 207 143 215 148 19 13
103 71 335 230 178 122 295 202 450 308 44 30 82 57 84 58 2 2 -13 29 -33 60
-34 51 -39 54 -56 42 -11 -7 -77 -52 -147 -100 -70 -48 -159 -109 -198 -136
-100 -69 -624 -428 -790 -541 -77 -52 -174 -119 -215 -147 -41 -29 -120 -83
-175 -121 -55 -37 -221 -151 -370 -253 -468 -323 -583 -400 -592 -400 -4 0 -8
52 -8 116 l0 115 22 -25 21 -25 111 77 c61 42 160 111 221 152 61 41 165 113
233 159 67 46 183 125 257 175 74 51 223 153 330 226 107 74 265 181 350 239
86 58 238 162 338 231 101 69 302 207 448 306 146 100 267 184 270 187 3 3
-11 30 -31 61 l-37 55 -122 -84 c-66 -46 -191 -131 -276 -189 -85 -58 -177
-120 -205 -140 -27 -19 -205 -140 -395 -270 -190 -129 -350 -239 -355 -243 -6
-4 -73 -51 -150 -103 -77 -52 -165 -111 -195 -132 -30 -21 -62 -43 -70 -48
-17 -12 -259 -177 -387 -265 -286 -196 -373 -253 -374 -247 0 4 -1 58 -2 120
l-2 113 21 -27 22 -27 83 58 c46 32 143 99 214 148 72 49 132 91 134 93 2 2
-13 29 -33 59 l-38 55 -142 -97 c-77 -54 -165 -114 -195 -135 -30 -21 -57 -36
-59 -33 -8 8 -8 2505 0 2505 4 0 13 -9 20 -19 11 -18 13 -18 37 -3 38 25 834
570 846 579 6 4 66 46 135 92 175 118 165 106 131 150 -15 20 -32 44 -38 54
-8 16 -17 13 -89 -37 -43 -30 -128 -88 -189 -130 -60 -41 -180 -123 -265 -181
-85 -58 -191 -131 -235 -161 -44 -30 -142 -97 -217 -149 -104 -72 -138 -91
-139 -78 -4 106 -2 223 4 223 4 0 7 -4 7 -8 0 -5 6 -16 13 -25 13 -18 6 -22
437 273 41 28 131 90 200 137 69 47 127 87 129 89 2 2 -13 29 -33 59 l-38 54
-34 -22 c-19 -12 -180 -122 -358 -244 -179 -123 -326 -223 -328 -223 -5 0 -2
220 4 225 2 3 11 -6 18 -20 l13 -24 111 76 c61 43 125 86 143 97 18 12 32 23
32 26 0 3 -17 29 -38 57 l-37 53 -90 -61z"/>
<path d="M4045 6435 c-82 -57 -185 -128 -228 -157 -43 -29 -113 -78 -157 -108
-43 -30 -129 -89 -190 -130 -202 -137 -421 -287 -427 -294 -3 -3 10 -30 31
-61 l36 -55 78 53 c123 85 296 204 742 509 118 80 245 167 282 192 l67 46 -37
55 c-20 30 -39 54 -42 54 -3 0 -72 -47 -155 -104z"/>
<path d="M4319 6298 c-75 -51 -143 -97 -151 -103 -9 -5 -169 -115 -356 -244
l-341 -234 37 -53 c20 -29 42 -52 48 -50 6 2 118 78 250 168 131 90 302 207
379 260 77 52 187 128 245 167 58 40 104 77 102 83 -5 16 -64 98 -72 98 -3 0
-67 -42 -141 -92z"/>
<path d="M4542 6122 c-78 -53 -192 -131 -254 -174 -429 -291 -513 -349 -516
-358 -2 -5 11 -31 30 -57 18 -27 34 -50 35 -51 1 -2 64 39 140 91 76 52 275
187 443 302 168 114 312 215 321 224 15 15 13 20 -21 68 l-37 52 -141 -97z"/>
<path d="M4839 5991 c-13 -10 -211 -145 -439 -301 -228 -155 -419 -286 -423
-290 -13 -12 55 -111 73 -106 8 2 156 100 327 217 172 118 369 252 438 299 69
47 125 88 125 92 0 9 -59 96 -69 103 -5 2 -19 -4 -32 -14z"/>
<path d="M4825 5655 c-99 -68 -222 -152 -273 -187 -88 -60 -227 -155 -382
-261 l-70 -48 17 -30 c10 -16 27 -41 39 -56 l21 -26 79 55 c43 30 167 115 274
188 107 73 251 172 320 219 69 47 151 102 183 124 36 24 55 42 51 50 -23 39
-66 97 -72 97 -4 -1 -88 -57 -187 -125z"/>
<path d="M4890 5375 c-124 -84 -290 -198 -369 -252 -80 -54 -191 -130 -248
-169 l-103 -71 37 -55 37 -56 33 22 c43 28 215 144 492 334 124 85 269 184
321 220 52 35 99 68 104 72 9 9 -54 110 -69 109 -5 0 -111 -69 -235 -154z"/>
<path d="M5060 5164 c-85 -58 -193 -131 -240 -162 -47 -31 -87 -59 -90 -62 -3
-3 -48 -34 -100 -69 -52 -35 -129 -87 -170 -116 -41 -28 -117 -80 -168 -115
-51 -34 -95 -66 -97 -71 -5 -7 48 -94 64 -103 4 -3 100 57 212 134 112 76 260
177 329 224 243 165 366 249 427 293 l63 44 -37 54 c-20 30 -37 55 -37 55 -1
0 -71 -48 -156 -106z"/>
<path d="M5185 4925 c-44 -30 -87 -60 -95 -65 -14 -9 -79 -54 -475 -325 -160
-109 -386 -263 -440 -299 -22 -15 -41 -29 -43 -31 -2 -2 13 -28 34 -59 l37
-56 156 107 c186 127 323 220 531 363 85 59 220 151 300 205 80 54 146 99 148
101 3 2 -68 114 -72 114 -1 0 -37 -25 -81 -55z"/>
<path d="M4645 3580 c-297 -203 -554 -379 -572 -392 -17 -13 -95 -66 -173
-118 -77 -52 -177 -120 -220 -150 -43 -30 -171 -118 -284 -194 -114 -77 -206
-142 -206 -144 0 -2 17 -28 37 -57 l38 -53 90 62 c49 35 149 103 220 151 72
49 193 131 270 184 77 52 300 204 495 338 883 602 930 635 923 646 -22 40 -65
97 -71 96 -4 0 -250 -166 -547 -369z"/>
<path d="M4765 3336 c-132 -91 -267 -183 -300 -206 -73 -50 -305 -208 -455
-310 -206 -140 -275 -188 -298 -206 l-23 -19 36 -50 c20 -27 41 -49 47 -47 10
3 1295 877 1311 892 10 9 -53 110 -68 110 -5 0 -118 -74 -250 -164z"/>
</g>
</svg>
