<?xml version="1.0" encoding="utf-8"?>
<!-- Generator: Adobe Illustrator 19.0.0, SVG Export Plug-In . SVG Version: 6.00 Build 0)  -->
<svg id="loader-logo" version="1.1" xmlns="http://www.w3.org/2000/svg" xmlns:xlink="http://www.w3.org/1999/xlink" x="0px" y="0px" viewBox="0 0 200 340" style="enable-background:new 0 0 200 340;" xml:space="preserve">
    <style type="text/css">
        .static-line{fill:none;stroke:#DEDFE2;stroke-width:5;stroke-miterlimit:10;}
        .dynamic-line{fill:none;stroke:#B11F23;stroke-width:6;stroke-miterlimit:10;}
        .static-polygon{fill:#B11F23;}
    </style>
    <g id="static-wrap">
        <line id="XMLID_3_" class="static-line" x1="193.4" y1="79.6" x2="138.6" y2="117"/>
        <line id="XMLID_30_" class="static-line" x1="83.7" y1="171.9" x2="60.4" y2="187.9"/>
        <line id="XMLID_28_" class="static-line" x1="182.9" y1="173.6" x2="112" y2="222"/>
        <line id="XMLID_27_" class="static-line" x1="192.5" y1="149.7" x2="85.3" y2="222.9"/>
        <line id="XMLID_26_" class="static-line" x1="188.9" y1="65.3" x2="137.8" y2="100.2"/>
        <path id="XMLID_25_" class="static-line" d="M197.3,111.7L60.4,205.3"/>
        <polyline id="XMLID_24_" class="static-line" points="196.3,129.7 60.4,222.6 60.4,222.9  "/>
        <line id="XMLID_20_" class="static-line" x1="196.2" y1="95" x2="135.4" y2="136.6"/>
        <line id="XMLID_18_" class="static-line" x1="122.4" y1="6.1" x2="60.4" y2="48.5"/>
        <line id="XMLID_15_" class="static-line" x1="100.9" y1="3.4" x2="60.4" y2="31.1"/>
        <path id="XMLID_14_" class="static-line" d="M89.8,54.4"/>
        <line id="XMLID_13_" class="static-line" x1="139.4" y1="11.8" x2="77.2" y2="54.4"/>
        <line id="XMLID_11_" class="static-line" x1="75.6" y1="3.4" x2="60.4" y2="13.8"/>
        <line id="XMLID_10_" class="static-line" x1="175" y1="40.1" x2="126.9" y2="73"/>
        <line id="XMLID_7_" class="static-line" x1="182.8" y1="52.1" x2="133.9" y2="85.6"/>
        <line id="XMLID_5_" class="static-line" x1="153.4" y1="19.6" x2="100.6" y2="55.7"/>
        <line id="XMLID_4_" class="static-line" x1="165.1" y1="29" x2="116.1" y2="62.5"/>
    </g>
    <g id="animation-wrap">
        <line id="1" class="dynamic-line" x1="75.6" y1="3.4" x2="60.4" y2="13.8"/>
        <line id="2" class="dynamic-line" x1="100.9" y1="3.4" x2="60.4" y2="31.1"/>
        <line id="3" class="dynamic-line" x1="122.4" y1="6.1" x2="60.4" y2="48.5"/>
        <line id="4" class="dynamic-line" x1="139.4" y1="11.8" x2="77.2" y2="54.4"/>
        <line id="5" class="dynamic-line" x1="153.4" y1="19.6" x2="100.6" y2="55.7"/>
        <line id="6" class="dynamic-line" x1="165.1" y1="29" x2="116.1" y2="62.5"/>
        <line id="7" class="dynamic-line" x1="175" y1="40.1" x2="126.9" y2="73"/>
        <line id="8" class="dynamic-line" x1="182.8" y1="52.1" x2="133.9" y2="85.6"/>
        <line id="9" class="dynamic-line" x1="188.9" y1="65.3" x2="137.8" y2="100.2"/>
        <line id="10" class="dynamic-line" x1="193.4" y1="79.6" x2="138.6" y2="117"/>
        <line id="11" class="dynamic-line" x1="196.2" y1="95" x2="135.4" y2="136.6"/>
        <line id="12" class="dynamic-line" x1="83.7" y1="171.9" x2="60.4" y2="187.9"/>
        <line id="13" class="dynamic-line" x1="197.3" y1="111.7" x2="60.4" y2="205.3"/>
        <line id="14" class="dynamic-line" x1="196.3" y1="129.7" x2="60.4" y2="222.9"/>
        <line id="15" class="dynamic-line" x1="192.5" y1="149.7" x2="85.3" y2="222.9"/>
        <line id="16" class="dynamic-line" x1="182.9" y1="173.6" x2="112" y2="222"/>
    </g>
    <g id="polygon-wrap">
        <polygon id="XMLID_1_" class="static-polygon" points="60.4,54.4 60.4,3.4 2.7,3.4 2.7,338.6 60.4,338.6 60.4,222.9 60.4,171.9    "/>
    </g>
</svg>